<?xml version="1.0" encoding="UTF-8"?>
<svg width="50px" height="68px" viewBox="0 0 50 68" version="1.1" xmlns="http://www.w3.org/2000/svg" xmlns:xlink="http://www.w3.org/1999/xlink">
    <!-- Generator: Sketch 48.2 (47327) - http://www.bohemiancoding.com/sketch -->
    <title>noun_784937_cc</title>
    <desc>Created with Sketch.</desc>
    <defs></defs>
    <g id="Page-1" stroke="none" stroke-width="1" fill="none" fill-rule="evenodd">
        <g id="noun_784937_cc" fill="#4A90E2">
            <path d="M48.003063,56 C49.107632,56 50.003063,55.104569 50.003063,54 L50.003063,2 C50.003063,0.8954305 49.107632,0 48.003063,0 L11.008897,0 C4.923816,0 0.003063,4.9208182 0.003063,10.9988624 L0,59.999046 C0,64.412808 3.578733,68 7.990498,68 L41.202798,68 C41.632651,68.000722 42.04269,68.000725 42.43083,68 L48.003063,68 C49.107632,68 50.003063,67.104569 50.003063,66 C50.003063,64.895431 49.107632,64 48.003063,64 L47.526323,64 C47.502381,63.898918 47.47872,63.795912 47.455437,63.691139 C47.17212,62.416214 47.003063,61.148283 47.003063,60 C47.003063,58.851717 47.17212,57.583786 47.455437,56.308861 C47.47872,56.204088 47.502381,56.101082 47.526323,56 L48.003063,56 Z M24.304695,19.476268 L25,20.1715729 L25.695305,19.476268 C28.625115,16.5464577 33.36915,16.5407227 36.297041,19.4686138 L36.531386,19.702959 C39.456628,22.6282008 39.450697,27.3777298 36.523732,30.3046951 L26.414214,40.4142136 C25.633165,41.1952621 24.366835,41.1952621 23.585786,40.4142136 L13.476268,30.3046951 C10.549303,27.3777298 10.543372,22.6282008 13.468614,19.702959 L13.702959,19.4686138 C16.63085,16.5407227 21.374885,16.5464577 24.304695,19.476268 Z M43.432635,56 C43.16214,57.35187 43.003063,58.702141 43.003063,60 C43.003063,61.297859 43.16214,62.64813 43.432635,64 L7.990498,64 C5.789988,64 4,62.205781 4,60 C4,57.792931 5.791536,56 7.990498,56 L43.432635,56 Z M16.304695,27.476268 C14.938248,26.1098208 14.93548,23.8929474 16.297041,22.5313862 L16.531386,22.297041 C17.895647,20.9327798 20.107026,20.9354532 21.476268,22.3046951 L23.585786,24.4142136 C24.366835,25.1952621 25.633165,25.1952621 26.414214,24.4142136 L28.523732,22.3046951 C29.892974,20.9354532 32.104353,20.9327798 33.468614,22.297041 L33.702959,22.5313862 C35.06452,23.8929474 35.061752,26.1098208 33.695305,27.476268 L25,36.1715729 L16.304695,27.476268 Z" id="Shape"></path>
        </g>
    </g>
</svg>